<mxfile host="app.diagrams.net" modified="2023-10-12T11:37:16.523Z" agent="Mozilla/5.0 (Windows NT 10.0; Win64; x64; rv:72.0) Gecko/20100101 Firefox/72.0" etag="29rOB3pGhL_zr49iuw0i" version="22.0.4" type="device">
  <diagram name="Страница — 1" id="M8Q3O2EAOLLicqi5zok2">
    <mxGraphModel dx="1434" dy="1940" grid="1" gridSize="10" guides="1" tooltips="1" connect="1" arrows="1" fold="1" page="1" pageScale="1" pageWidth="827" pageHeight="1169" math="0" shadow="0">
      <root>
        <mxCell id="0" />
        <mxCell id="1" parent="0" />
        <mxCell id="qV3EhHZnvEfM318TM9s7-1" value="Пользователь" style="shape=umlActor;verticalLabelPosition=bottom;verticalAlign=top;html=1;outlineConnect=0;" vertex="1" parent="1">
          <mxGeometry x="40" y="-435" width="30" height="60" as="geometry" />
        </mxCell>
        <mxCell id="qV3EhHZnvEfM318TM9s7-2" value="" style="rounded=0;whiteSpace=wrap;html=1;" vertex="1" parent="1">
          <mxGeometry x="127" y="-1020" width="700" height="960" as="geometry" />
        </mxCell>
        <mxCell id="qV3EhHZnvEfM318TM9s7-5" value="Просмотр каталога" style="ellipse;whiteSpace=wrap;html=1;" vertex="1" parent="1">
          <mxGeometry x="170" y="-405" width="110" height="60" as="geometry" />
        </mxCell>
        <mxCell id="qV3EhHZnvEfM318TM9s7-7" value="" style="endArrow=none;html=1;rounded=0;exitX=0;exitY=0.5;exitDx=0;exitDy=0;entryX=0.5;entryY=0.5;entryDx=0;entryDy=0;entryPerimeter=0;" edge="1" parent="1" source="qV3EhHZnvEfM318TM9s7-5" target="qV3EhHZnvEfM318TM9s7-1">
          <mxGeometry width="50" height="50" relative="1" as="geometry">
            <mxPoint x="380" y="-105" as="sourcePoint" />
            <mxPoint x="110" y="-395" as="targetPoint" />
          </mxGeometry>
        </mxCell>
        <mxCell id="qV3EhHZnvEfM318TM9s7-8" value="Авторизация" style="ellipse;whiteSpace=wrap;html=1;" vertex="1" parent="1">
          <mxGeometry x="270" y="-705" width="100" height="60" as="geometry" />
        </mxCell>
        <mxCell id="qV3EhHZnvEfM318TM9s7-10" value="Extends" style="endArrow=block;endSize=16;endFill=0;html=1;rounded=0;exitX=0.5;exitY=1;exitDx=0;exitDy=0;entryX=0.638;entryY=0.049;entryDx=0;entryDy=0;entryPerimeter=0;" edge="1" parent="1" source="qV3EhHZnvEfM318TM9s7-8" target="qV3EhHZnvEfM318TM9s7-5">
          <mxGeometry width="160" relative="1" as="geometry">
            <mxPoint x="330" y="-205" as="sourcePoint" />
            <mxPoint x="490" y="-205" as="targetPoint" />
          </mxGeometry>
        </mxCell>
        <mxCell id="qV3EhHZnvEfM318TM9s7-13" value="Применение фильтров" style="ellipse;whiteSpace=wrap;html=1;" vertex="1" parent="1">
          <mxGeometry x="370" y="-325" width="130" height="60" as="geometry" />
        </mxCell>
        <mxCell id="qV3EhHZnvEfM318TM9s7-16" value="Поиск товаров" style="ellipse;whiteSpace=wrap;html=1;" vertex="1" parent="1">
          <mxGeometry x="370" y="-440" width="120" height="60" as="geometry" />
        </mxCell>
        <mxCell id="qV3EhHZnvEfM318TM9s7-18" style="edgeStyle=orthogonalEdgeStyle;rounded=0;orthogonalLoop=1;jettySize=auto;html=1;exitX=0.5;exitY=1;exitDx=0;exitDy=0;" edge="1" parent="1" source="qV3EhHZnvEfM318TM9s7-2" target="qV3EhHZnvEfM318TM9s7-2">
          <mxGeometry relative="1" as="geometry" />
        </mxCell>
        <mxCell id="qV3EhHZnvEfM318TM9s7-20" value="Просмотр корзины" style="ellipse;whiteSpace=wrap;html=1;" vertex="1" parent="1">
          <mxGeometry x="140" y="-645" width="90" height="50" as="geometry" />
        </mxCell>
        <mxCell id="qV3EhHZnvEfM318TM9s7-25" value="Избранное" style="ellipse;whiteSpace=wrap;html=1;" vertex="1" parent="1">
          <mxGeometry x="334" y="-540" width="80" height="50" as="geometry" />
        </mxCell>
        <mxCell id="qV3EhHZnvEfM318TM9s7-27" value="Просмотр информации о компании" style="ellipse;whiteSpace=wrap;html=1;" vertex="1" parent="1">
          <mxGeometry x="230" y="-265" width="130" height="60" as="geometry" />
        </mxCell>
        <mxCell id="qV3EhHZnvEfM318TM9s7-30" value="Заполнение корзины" style="ellipse;whiteSpace=wrap;html=1;" vertex="1" parent="1">
          <mxGeometry x="150" y="-515" width="90" height="50" as="geometry" />
        </mxCell>
        <mxCell id="qV3EhHZnvEfM318TM9s7-31" value="Extends" style="endArrow=block;endSize=16;endFill=0;html=1;rounded=0;exitX=-0.007;exitY=0.586;exitDx=0;exitDy=0;entryX=0.975;entryY=0.407;entryDx=0;entryDy=0;exitPerimeter=0;entryPerimeter=0;" edge="1" parent="1" source="qV3EhHZnvEfM318TM9s7-16" target="qV3EhHZnvEfM318TM9s7-5">
          <mxGeometry width="160" relative="1" as="geometry">
            <mxPoint x="230" y="-455" as="sourcePoint" />
            <mxPoint x="231" y="-395" as="targetPoint" />
          </mxGeometry>
        </mxCell>
        <mxCell id="qV3EhHZnvEfM318TM9s7-32" value="Extends" style="endArrow=block;endSize=16;endFill=0;html=1;rounded=0;exitX=0;exitY=0.5;exitDx=0;exitDy=0;entryX=1;entryY=0.5;entryDx=0;entryDy=0;" edge="1" parent="1" source="qV3EhHZnvEfM318TM9s7-13" target="qV3EhHZnvEfM318TM9s7-5">
          <mxGeometry width="160" relative="1" as="geometry">
            <mxPoint x="330" y="-385" as="sourcePoint" />
            <mxPoint x="285" y="-341" as="targetPoint" />
          </mxGeometry>
        </mxCell>
        <mxCell id="qV3EhHZnvEfM318TM9s7-33" value="Extends" style="endArrow=block;endSize=16;endFill=0;html=1;rounded=0;exitX=0;exitY=0;exitDx=0;exitDy=0;entryX=1;entryY=1;entryDx=0;entryDy=0;" edge="1" parent="1" source="qV3EhHZnvEfM318TM9s7-27" target="qV3EhHZnvEfM318TM9s7-5">
          <mxGeometry width="160" relative="1" as="geometry">
            <mxPoint x="370" y="-365" as="sourcePoint" />
            <mxPoint x="290" y="-365" as="targetPoint" />
          </mxGeometry>
        </mxCell>
        <mxCell id="qV3EhHZnvEfM318TM9s7-34" value="Extends" style="endArrow=block;endSize=16;endFill=0;html=1;rounded=0;exitX=0.5;exitY=0;exitDx=0;exitDy=0;entryX=0.716;entryY=0.955;entryDx=0;entryDy=0;entryPerimeter=0;" edge="1" parent="1" source="qV3EhHZnvEfM318TM9s7-25" target="qV3EhHZnvEfM318TM9s7-8">
          <mxGeometry width="160" relative="1" as="geometry">
            <mxPoint x="225" y="-569" as="sourcePoint" />
            <mxPoint x="180" y="-525" as="targetPoint" />
          </mxGeometry>
        </mxCell>
        <mxCell id="qV3EhHZnvEfM318TM9s7-35" value="Extends" style="endArrow=block;endSize=16;endFill=0;html=1;rounded=0;exitX=0.5;exitY=1;exitDx=0;exitDy=0;" edge="1" parent="1" source="qV3EhHZnvEfM318TM9s7-20" target="qV3EhHZnvEfM318TM9s7-30">
          <mxGeometry width="160" relative="1" as="geometry">
            <mxPoint x="190" y="-590" as="sourcePoint" />
            <mxPoint x="270" y="-395" as="targetPoint" />
          </mxGeometry>
        </mxCell>
        <mxCell id="qV3EhHZnvEfM318TM9s7-37" value="Extends" style="endArrow=block;endSize=16;endFill=0;html=1;rounded=0;exitX=0.5;exitY=1;exitDx=0;exitDy=0;entryX=0.5;entryY=0;entryDx=0;entryDy=0;" edge="1" parent="1" source="qV3EhHZnvEfM318TM9s7-30" target="qV3EhHZnvEfM318TM9s7-5">
          <mxGeometry width="160" relative="1" as="geometry">
            <mxPoint x="340" y="-535" as="sourcePoint" />
            <mxPoint x="250" y="-392" as="targetPoint" />
          </mxGeometry>
        </mxCell>
        <mxCell id="qV3EhHZnvEfM318TM9s7-42" value="" style="endArrow=block;dashed=1;endFill=0;endSize=12;html=1;rounded=0;exitX=0.667;exitY=0.1;exitDx=0;exitDy=0;exitPerimeter=0;entryX=0;entryY=1;entryDx=0;entryDy=0;" edge="1" parent="1" source="qV3EhHZnvEfM318TM9s7-30" target="qV3EhHZnvEfM318TM9s7-8">
          <mxGeometry width="160" relative="1" as="geometry">
            <mxPoint x="362" y="-628" as="sourcePoint" />
            <mxPoint x="400" y="-505" as="targetPoint" />
          </mxGeometry>
        </mxCell>
        <mxCell id="qV3EhHZnvEfM318TM9s7-43" value="Include" style="edgeLabel;html=1;align=center;verticalAlign=middle;resizable=0;points=[];" vertex="1" connectable="0" parent="qV3EhHZnvEfM318TM9s7-42">
          <mxGeometry x="-0.1342" relative="1" as="geometry">
            <mxPoint as="offset" />
          </mxGeometry>
        </mxCell>
        <mxCell id="qV3EhHZnvEfM318TM9s7-44" value="Extends" style="endArrow=block;endSize=16;endFill=0;html=1;rounded=0;entryX=1;entryY=0.5;entryDx=0;entryDy=0;exitX=0;exitY=0.5;exitDx=0;exitDy=0;" edge="1" parent="1" source="qV3EhHZnvEfM318TM9s7-45" target="qV3EhHZnvEfM318TM9s7-8">
          <mxGeometry width="160" relative="1" as="geometry">
            <mxPoint x="585" y="-758" as="sourcePoint" />
            <mxPoint x="505" y="-515" as="targetPoint" />
          </mxGeometry>
        </mxCell>
        <mxCell id="qV3EhHZnvEfM318TM9s7-45" value="Оформление заказа" style="ellipse;whiteSpace=wrap;html=1;" vertex="1" parent="1">
          <mxGeometry x="450" y="-565" width="100" height="50" as="geometry" />
        </mxCell>
        <mxCell id="qV3EhHZnvEfM318TM9s7-53" value="Extends" style="endArrow=block;endSize=16;endFill=0;html=1;rounded=0;entryX=1;entryY=0;entryDx=0;entryDy=0;exitX=0;exitY=0.5;exitDx=0;exitDy=0;" edge="1" parent="1" source="qV3EhHZnvEfM318TM9s7-54" target="qV3EhHZnvEfM318TM9s7-8">
          <mxGeometry width="160" relative="1" as="geometry">
            <mxPoint x="535" y="-813" as="sourcePoint" />
            <mxPoint x="320" y="-730" as="targetPoint" />
          </mxGeometry>
        </mxCell>
        <mxCell id="qV3EhHZnvEfM318TM9s7-54" value="Просмотр профиля" style="ellipse;whiteSpace=wrap;html=1;" vertex="1" parent="1">
          <mxGeometry x="385" y="-800" width="100" height="50" as="geometry" />
        </mxCell>
        <mxCell id="qV3EhHZnvEfM318TM9s7-55" value="Extends" style="endArrow=block;endSize=16;endFill=0;html=1;rounded=0;entryX=0;entryY=0.5;entryDx=0;entryDy=0;exitX=1.021;exitY=0.606;exitDx=0;exitDy=0;exitPerimeter=0;" edge="1" parent="1" source="qV3EhHZnvEfM318TM9s7-56" target="qV3EhHZnvEfM318TM9s7-54">
          <mxGeometry width="160" relative="1" as="geometry">
            <mxPoint x="670" y="-748" as="sourcePoint" />
            <mxPoint x="490" y="-631" as="targetPoint" />
          </mxGeometry>
        </mxCell>
        <mxCell id="qV3EhHZnvEfM318TM9s7-56" value="&lt;div&gt;Просмотр истории&lt;/div&gt;&lt;div&gt;заказов&lt;br&gt;&lt;/div&gt;" style="ellipse;whiteSpace=wrap;html=1;" vertex="1" parent="1">
          <mxGeometry x="220" y="-810" width="100" height="50" as="geometry" />
        </mxCell>
        <mxCell id="qV3EhHZnvEfM318TM9s7-57" value="Extends" style="endArrow=block;endSize=16;endFill=0;html=1;rounded=0;entryX=0.113;entryY=0.926;entryDx=0;entryDy=0;exitX=0.58;exitY=-0.057;exitDx=0;exitDy=0;exitPerimeter=0;entryPerimeter=0;" edge="1" parent="1" source="qV3EhHZnvEfM318TM9s7-58" target="qV3EhHZnvEfM318TM9s7-56">
          <mxGeometry width="160" relative="1" as="geometry">
            <mxPoint x="583.95" y="-688" as="sourcePoint" />
            <mxPoint x="188.35000000000008" y="-655.15" as="targetPoint" />
          </mxGeometry>
        </mxCell>
        <mxCell id="qV3EhHZnvEfM318TM9s7-58" value="&lt;div&gt;Просмотр подробностей&lt;br&gt;&lt;/div&gt;&lt;div&gt;заказов&lt;br&gt;&lt;/div&gt;" style="ellipse;whiteSpace=wrap;html=1;" vertex="1" parent="1">
          <mxGeometry x="135" y="-730" width="100" height="50" as="geometry" />
        </mxCell>
        <mxCell id="qV3EhHZnvEfM318TM9s7-59" value="Заполнение формы заказа" style="ellipse;whiteSpace=wrap;html=1;" vertex="1" parent="1">
          <mxGeometry x="580" y="-717.5" width="100" height="60" as="geometry" />
        </mxCell>
        <mxCell id="qV3EhHZnvEfM318TM9s7-60" value="" style="endArrow=block;dashed=1;endFill=0;endSize=12;html=1;rounded=0;exitX=0.7;exitY=0.011;exitDx=0;exitDy=0;exitPerimeter=0;entryX=0;entryY=1;entryDx=0;entryDy=0;" edge="1" parent="1" target="qV3EhHZnvEfM318TM9s7-59" source="qV3EhHZnvEfM318TM9s7-45">
          <mxGeometry width="160" relative="1" as="geometry">
            <mxPoint x="520" y="-522.5" as="sourcePoint" />
            <mxPoint x="710" y="-517.5" as="targetPoint" />
          </mxGeometry>
        </mxCell>
        <mxCell id="qV3EhHZnvEfM318TM9s7-61" value="Include" style="edgeLabel;html=1;align=center;verticalAlign=middle;resizable=0;points=[];" vertex="1" connectable="0" parent="qV3EhHZnvEfM318TM9s7-60">
          <mxGeometry x="-0.1342" relative="1" as="geometry">
            <mxPoint as="offset" />
          </mxGeometry>
        </mxCell>
        <mxCell id="qV3EhHZnvEfM318TM9s7-62" value="Extends" style="endArrow=block;endSize=16;endFill=0;html=1;rounded=0;entryX=0.989;entryY=0.377;entryDx=0;entryDy=0;exitX=0;exitY=0.5;exitDx=0;exitDy=0;entryPerimeter=0;" edge="1" parent="1" source="qV3EhHZnvEfM318TM9s7-63" target="qV3EhHZnvEfM318TM9s7-8">
          <mxGeometry width="160" relative="1" as="geometry">
            <mxPoint x="575" y="-873" as="sourcePoint" />
            <mxPoint x="360" y="-790" as="targetPoint" />
          </mxGeometry>
        </mxCell>
        <mxCell id="qV3EhHZnvEfM318TM9s7-63" value="Редактирование данных пользователя" style="ellipse;whiteSpace=wrap;html=1;" vertex="1" parent="1">
          <mxGeometry x="430" y="-722.5" width="120" height="70" as="geometry" />
        </mxCell>
        <mxCell id="qV3EhHZnvEfM318TM9s7-64" value="Админ" style="shape=umlActor;verticalLabelPosition=bottom;verticalAlign=top;html=1;outlineConnect=0;" vertex="1" parent="1">
          <mxGeometry x="860" y="-650" width="30" height="60" as="geometry" />
        </mxCell>
        <mxCell id="qV3EhHZnvEfM318TM9s7-68" value="" style="endArrow=none;html=1;rounded=0;exitX=0.5;exitY=0.5;exitDx=0;exitDy=0;entryX=1;entryY=0;entryDx=0;entryDy=0;exitPerimeter=0;" edge="1" parent="1" source="qV3EhHZnvEfM318TM9s7-64" target="qV3EhHZnvEfM318TM9s7-5">
          <mxGeometry width="50" height="50" relative="1" as="geometry">
            <mxPoint x="850" y="-480" as="sourcePoint" />
            <mxPoint x="735" y="-510" as="targetPoint" />
          </mxGeometry>
        </mxCell>
        <mxCell id="qV3EhHZnvEfM318TM9s7-69" value="Просмотр списка пользователей" style="ellipse;whiteSpace=wrap;html=1;" vertex="1" parent="1">
          <mxGeometry x="570" y="-900" width="110" height="60" as="geometry" />
        </mxCell>
        <mxCell id="qV3EhHZnvEfM318TM9s7-70" value="" style="endArrow=none;html=1;rounded=0;exitX=0.5;exitY=0.5;exitDx=0;exitDy=0;entryX=0.973;entryY=0.637;entryDx=0;entryDy=0;exitPerimeter=0;entryPerimeter=0;" edge="1" parent="1" target="qV3EhHZnvEfM318TM9s7-69" source="qV3EhHZnvEfM318TM9s7-64">
          <mxGeometry width="50" height="50" relative="1" as="geometry">
            <mxPoint x="1195" y="-1060" as="sourcePoint" />
            <mxPoint x="1055" y="-950" as="targetPoint" />
          </mxGeometry>
        </mxCell>
        <mxCell id="qV3EhHZnvEfM318TM9s7-71" value="Extends" style="endArrow=block;endSize=16;endFill=0;html=1;rounded=0;entryX=0.5;entryY=1;entryDx=0;entryDy=0;exitX=0.718;exitY=0.019;exitDx=0;exitDy=0;exitPerimeter=0;" edge="1" parent="1" source="qV3EhHZnvEfM318TM9s7-63" target="qV3EhHZnvEfM318TM9s7-69">
          <mxGeometry width="160" relative="1" as="geometry">
            <mxPoint x="440" y="-677" as="sourcePoint" />
            <mxPoint x="379" y="-672" as="targetPoint" />
          </mxGeometry>
        </mxCell>
        <mxCell id="qV3EhHZnvEfM318TM9s7-72" value="Extends" style="endArrow=block;endSize=16;endFill=0;html=1;rounded=0;entryX=0;entryY=0.667;entryDx=0;entryDy=0;exitX=0.912;exitY=0.152;exitDx=0;exitDy=0;exitPerimeter=0;entryPerimeter=0;" edge="1" parent="1" source="qV3EhHZnvEfM318TM9s7-54" target="qV3EhHZnvEfM318TM9s7-69">
          <mxGeometry width="160" relative="1" as="geometry">
            <mxPoint x="410" y="-821" as="sourcePoint" />
            <mxPoint x="519" y="-940" as="targetPoint" />
          </mxGeometry>
        </mxCell>
        <mxCell id="qV3EhHZnvEfM318TM9s7-73" value="Редактирование каталога" style="ellipse;whiteSpace=wrap;html=1;" vertex="1" parent="1">
          <mxGeometry x="610" y="-470" width="110" height="60" as="geometry" />
        </mxCell>
        <mxCell id="qV3EhHZnvEfM318TM9s7-74" value="" style="endArrow=none;html=1;rounded=0;entryX=1;entryY=0;entryDx=0;entryDy=0;exitX=0.5;exitY=0.5;exitDx=0;exitDy=0;exitPerimeter=0;" edge="1" parent="1" target="qV3EhHZnvEfM318TM9s7-73" source="qV3EhHZnvEfM318TM9s7-64">
          <mxGeometry width="50" height="50" relative="1" as="geometry">
            <mxPoint x="870" y="-620" as="sourcePoint" />
            <mxPoint x="1145" y="-590" as="targetPoint" />
          </mxGeometry>
        </mxCell>
        <mxCell id="qV3EhHZnvEfM318TM9s7-76" value="Extends" style="endArrow=block;endSize=16;endFill=0;html=1;rounded=0;entryX=0;entryY=1;entryDx=0;entryDy=0;exitX=0.5;exitY=0;exitDx=0;exitDy=0;" edge="1" parent="1" source="qV3EhHZnvEfM318TM9s7-77" target="qV3EhHZnvEfM318TM9s7-73">
          <mxGeometry width="160" relative="1" as="geometry">
            <mxPoint x="726" y="-530.5" as="sourcePoint" />
            <mxPoint x="520" y="-339.5" as="targetPoint" />
          </mxGeometry>
        </mxCell>
        <mxCell id="qV3EhHZnvEfM318TM9s7-77" value="Редактирование&amp;nbsp; Товаров" style="ellipse;whiteSpace=wrap;html=1;" vertex="1" parent="1">
          <mxGeometry x="530" y="-345" width="120" height="70" as="geometry" />
        </mxCell>
        <mxCell id="qV3EhHZnvEfM318TM9s7-78" value="Extends" style="endArrow=block;endSize=16;endFill=0;html=1;rounded=0;entryX=0.583;entryY=0.981;entryDx=0;entryDy=0;exitX=0.356;exitY=-0.012;exitDx=0;exitDy=0;entryPerimeter=0;exitPerimeter=0;" edge="1" parent="1" source="qV3EhHZnvEfM318TM9s7-79" target="qV3EhHZnvEfM318TM9s7-73">
          <mxGeometry width="160" relative="1" as="geometry">
            <mxPoint x="926" y="-600.5" as="sourcePoint" />
            <mxPoint x="720" y="-409.5" as="targetPoint" />
          </mxGeometry>
        </mxCell>
        <mxCell id="qV3EhHZnvEfM318TM9s7-79" value="Добавление товаров" style="ellipse;whiteSpace=wrap;html=1;" vertex="1" parent="1">
          <mxGeometry x="680" y="-360" width="120" height="70" as="geometry" />
        </mxCell>
        <mxCell id="qV3EhHZnvEfM318TM9s7-80" value="Extends" style="endArrow=block;endSize=16;endFill=0;html=1;rounded=0;entryX=0.381;entryY=0.962;entryDx=0;entryDy=0;exitX=0.356;exitY=-0.012;exitDx=0;exitDy=0;entryPerimeter=0;exitPerimeter=0;" edge="1" parent="1" source="qV3EhHZnvEfM318TM9s7-81" target="qV3EhHZnvEfM318TM9s7-73">
          <mxGeometry width="160" relative="1" as="geometry">
            <mxPoint x="876" y="-498.9" as="sourcePoint" />
            <mxPoint x="635.5899999999999" y="-410.0000000000001" as="targetPoint" />
          </mxGeometry>
        </mxCell>
        <mxCell id="qV3EhHZnvEfM318TM9s7-81" value="Добавление товаров" style="ellipse;whiteSpace=wrap;html=1;" vertex="1" parent="1">
          <mxGeometry x="630" y="-258.4" width="120" height="70" as="geometry" />
        </mxCell>
        <mxCell id="qV3EhHZnvEfM318TM9s7-82" value="Удаление пользователей" style="ellipse;whiteSpace=wrap;html=1;" vertex="1" parent="1">
          <mxGeometry x="397.5" y="-950" width="100" height="50" as="geometry" />
        </mxCell>
        <mxCell id="qV3EhHZnvEfM318TM9s7-83" value="Extends" style="endArrow=block;endSize=16;endFill=0;html=1;rounded=0;exitX=1;exitY=0.5;exitDx=0;exitDy=0;entryX=0.022;entryY=0.338;entryDx=0;entryDy=0;entryPerimeter=0;" edge="1" parent="1" source="qV3EhHZnvEfM318TM9s7-82" target="qV3EhHZnvEfM318TM9s7-69">
          <mxGeometry width="160" relative="1" as="geometry">
            <mxPoint x="422.5" y="-971" as="sourcePoint" />
            <mxPoint x="582.5" y="-1010" as="targetPoint" />
          </mxGeometry>
        </mxCell>
        <mxCell id="qV3EhHZnvEfM318TM9s7-84" value="Extends" style="endArrow=block;endSize=16;endFill=0;html=1;rounded=0;exitX=1;exitY=0.66;exitDx=0;exitDy=0;exitPerimeter=0;entryX=0.05;entryY=0.65;entryDx=0;entryDy=0;entryPerimeter=0;" edge="1" parent="1" source="qV3EhHZnvEfM318TM9s7-20" target="qV3EhHZnvEfM318TM9s7-8">
          <mxGeometry width="160" relative="1" as="geometry">
            <mxPoint x="195" y="-585" as="sourcePoint" />
            <mxPoint x="203" y="-505" as="targetPoint" />
          </mxGeometry>
        </mxCell>
      </root>
    </mxGraphModel>
  </diagram>
</mxfile>
